<svg width="82" height="82" viewBox="0 0 82 82" fill="none" xmlns="http://www.w3.org/2000/svg">
<rect x="0.75" y="0.75" width="80.5" height="80.5" rx="9.94697" fill="url(#paint0_linear_1923_26901)" stroke="#3366CC" stroke-width="0.5"/>
<rect x="27" y="9" width="28" height="28" rx="14" fill="white"/>
<path d="M8 61C8 47.7452 18.7452 37 32 37H50C63.2548 37 74 47.7452 74 61V62.899C74 68.4776 69.4776 73 63.899 73H18.101C12.5224 73 8 68.4776 8 62.899V61Z" fill="#3366CC"/>
<rect x="53" y="31" width="20" height="20" rx="10" fill="#3366CC"/>
<path fill-rule="evenodd" clip-rule="evenodd" d="M63 32.0417C58.0525 32.0417 54.0417 36.0525 54.0417 41.0001C54.0417 45.9476 58.0525 49.9584 63 49.9584C67.9476 49.9584 71.9583 45.9476 71.9583 41.0001C71.9583 36.0525 67.9476 32.0417 63 32.0417ZM63.8333 37.6667C63.8333 37.2064 63.4602 36.8333 63 36.8333C62.5398 36.8333 62.1667 37.2064 62.1667 37.6667V40.1667H59.6667C59.2064 40.1667 58.8333 40.5398 58.8333 41C58.8333 41.4602 59.2064 41.8333 59.6667 41.8333H62.1667V44.3333C62.1667 44.7936 62.5398 45.1667 63 45.1667C63.4602 45.1667 63.8333 44.7936 63.8333 44.3333V41.8333H66.3333C66.7936 41.8333 67.1667 41.4602 67.1667 41C67.1667 40.5398 66.7936 40.1667 66.3333 40.1667H63.8333V37.6667Z" fill="#F7D046"/>
<defs>
<linearGradient id="paint0_linear_1923_26901" x1="41" y1="1" x2="41" y2="81" gradientUnits="userSpaceOnUse">
<stop stop-color="#3366CC"/>
<stop offset="1" stop-color="#EAF1FF" stop-opacity="0"/>
</linearGradient>
</defs>
</svg>
