<svg xmlns="http://www.w3.org/2000/svg" width="24" height="24" viewBox="0 0 24 24" fill="none">
  <path fill-rule="evenodd" clip-rule="evenodd" d="M9.55806 5.55806C9.80214 5.31398 10.1979 5.31398 10.4419 5.55806L14.5563 9.67244L14.5743 9.69038C14.889 10.0051 15.1517 10.2678 15.3488 10.5C15.5544 10.7421 15.725 10.9918 15.8225 11.2918C15.972 11.7521 15.972 12.2479 15.8225 12.7082C15.725 13.0082 15.5544 13.2579 15.3488 13.5C15.1517 13.7322 14.889 13.9949 14.5743 14.3096L14.5563 14.3276L10.4419 18.4419C10.1979 18.686 9.80214 18.686 9.55806 18.4419C9.31398 18.1979 9.31398 17.8021 9.55806 17.5581L13.6724 13.4437C14.0097 13.1064 14.2358 12.8796 14.3959 12.691C14.5513 12.508 14.6075 12.4024 14.6337 12.3219C14.7016 12.1127 14.7016 11.8873 14.6337 11.6781C14.6075 11.5976 14.5513 11.492 14.3959 11.309C14.2358 11.1204 14.0097 10.8936 13.6724 10.5563L9.55806 6.44194C9.31398 6.19786 9.31398 5.80214 9.55806 5.55806Z" fill="#52596D"/>
</svg>