<svg width="144" height="272" viewBox="0 0 144 272" fill="none" xmlns="http://www.w3.org/2000/svg">
<g clip-path="url(#clip0_1923_25079)">
<path d="M159.591 205.931V206.022C159.591 209.587 159.368 213.2 158.742 216.788L158.741 216.79C157.745 222.469 155.398 227.51 151.843 231.939L151.842 231.941C149.276 235.134 146.391 237.898 143.396 240.449L143.388 240.456C135.868 246.806 127.442 251.73 118.717 255.9L118.71 255.904L118.703 255.907C106.618 261.591 93.9809 265.287 80.8029 267.107L80.7914 267.108C75.9408 267.755 70.8811 268.425 65.7962 268.537L65.788 268.537C59.8167 268.649 53.7963 268.093 47.9464 266.258L47.9252 266.251L47.9042 266.244C46.1871 265.672 44.464 264.983 42.7915 264.176L42.7696 264.165L42.7478 264.154C38.4444 261.972 35.086 258.676 32.8404 254.367C30.8942 250.637 28.9156 246.748 27.4937 242.539L27.4905 242.53C27.3753 242.184 27.3182 242.025 27.2473 241.883L27.2432 241.875C24.1888 235.709 22.4564 229.134 20.8391 222.827C18.8684 215.226 16.3627 207.79 13.8307 200.276C13.478 199.23 13.1249 198.182 12.7727 197.131C10.549 190.515 8.39706 183.739 6.9577 176.763L6.95616 176.756L6.95466 176.748C6.01723 172.061 5.33957 167.298 5.28282 162.382C5.22582 158.258 5.74085 154.117 6.89542 150.132C9.70188 140.312 14.4979 131.479 21.8741 124.159C24.8966 121.137 28.296 118.536 32.1874 116.56C34.0109 115.621 35.8824 114.74 37.7065 113.882L37.7269 113.872L37.7342 113.869L37.7342 113.869C40.1367 112.748 42.5247 111.648 44.9033 110.552C49.0008 108.665 53.0706 106.791 57.139 104.842L57.1468 104.839L57.1545 104.835C66.4693 100.451 76.0375 96.8189 86.0711 94.2829L159.591 205.931ZM159.591 205.931L159.584 205.84M159.591 205.931L159.584 205.84M159.584 205.84C159.533 205.143 159.486 204.426 159.439 203.697C159.341 202.193 159.24 200.641 159.092 199.123L159.091 199.117C158.486 193.062 157.497 187.083 156.352 181.196C153.346 165.401 148.864 150.046 142.964 135.078L142.961 135.07C140.37 128.566 137.267 122.241 133.369 116.281L133.366 116.278C128.513 108.885 122.321 102.873 115.17 97.9009L115.168 97.8998M159.584 205.84L115.168 97.8998M115.168 97.8998C110.131 94.4034 104.542 92.7454 98.4818 92.7454C94.2742 92.7454 90.1177 93.2571 86.0718 94.2827L115.168 97.8998Z" stroke="#F7D046" stroke-width="5"/>
<path fill-rule="evenodd" clip-rule="evenodd" d="M75.3084 116.695C75.5087 112.734 78.2161 110.678 81.9761 111.781C83.5304 112.233 84.5331 113.235 84.9845 114.79C85.4861 116.595 85.3357 118.4 84.4834 120.055C83.5807 121.759 82.1769 122.812 80.1713 122.762C78.2161 122.712 76.8627 121.558 76.1608 119.803C75.8334 119.076 75.664 118.296 75.5005 117.539C75.4383 117.253 75.3772 116.97 75.3084 116.695ZM37.4556 214.77C37.4556 214.67 37.4556 214.369 37.5058 214.118C37.8066 213.266 37.9069 212.363 37.9069 211.41C37.9069 210.207 38.9597 209.305 40.2131 209.254C40.7646 209.254 41.3662 209.355 41.8174 209.555C43.4218 210.308 44.9259 211.26 46.079 212.614C48.4354 215.272 47.3826 219.633 44.0736 220.887C42.3188 221.589 40.4638 221.088 39.1603 219.633C38.2077 218.531 37.4556 216.525 37.4556 214.77ZM57.8607 240.843C57.0587 241.645 56.7578 242.648 56.7578 243.3C56.7578 246.008 58.0111 248.264 59.8165 249.317C62.0726 250.621 64.6291 249.919 65.8829 247.612C67.6877 244.303 65.5821 239.74 61.9221 238.938C60.5184 238.637 59.3148 238.938 58.4127 240.191C58.2622 240.442 58.0615 240.643 57.8607 240.843ZM130.508 204.441C130.458 204.675 130.419 204.915 130.38 205.154C130.302 205.634 130.224 206.112 130.057 206.547C128.954 209.505 125.495 210.257 123.238 208.001C122.085 206.898 121.634 205.444 121.433 203.889C121.383 203.438 121.283 202.937 121.133 202.486C120.431 200.681 121.133 199.126 122.987 198.524C125.294 197.722 128.352 198.875 129.555 200.981C130.157 202.034 130.458 203.187 130.508 204.441ZM28.8911 140.705L28.891 140.706C28.8695 140.821 28.8501 140.924 28.8323 141.013C28.8824 143.119 29.2333 144.624 30.2862 145.827C31.3892 147.13 32.8431 147.732 34.5477 147.431C36.2524 147.13 37.3554 146.027 37.9069 144.372C38.9096 141.414 37.3053 137.854 34.1467 137.152C34.0464 137.119 33.9461 137.091 33.8459 137.063C33.6453 137.008 33.4447 136.952 33.2442 136.851C31.8404 136.25 30.0857 136.851 29.3838 138.657C29.1365 139.399 28.9908 140.175 28.8911 140.705ZM114.765 227.004C114.765 229.06 113.712 230.665 112.008 231.216C110.453 231.768 108.849 231.266 107.696 229.912C106.392 228.308 105.841 226.453 105.891 224.447C105.941 222.993 106.744 221.789 107.596 220.687C108.147 219.985 109 219.784 109.902 219.934C110.404 220.035 110.905 220.235 111.306 220.536C113.111 221.74 114.765 224.798 114.765 227.004ZM29.2334 176.763V177.265C29.2835 179.521 29.9854 181.527 31.9908 182.83C33.3445 183.733 34.7985 183.933 36.3025 183.182C37.7565 182.429 38.4083 181.126 38.4584 179.571C38.5587 176.914 37.205 174.959 34.999 173.554C34.7985 173.404 34.5979 173.304 34.3472 173.253C31.7903 172.451 29.3838 174.106 29.2334 176.763ZM96.0648 228.809C96.1428 228.985 96.2056 229.168 96.2678 229.35C96.3657 229.635 96.4626 229.918 96.6163 230.163C97.3182 231.316 97.8696 232.469 97.9194 233.874C97.9698 235.378 97.4183 236.531 96.0648 237.233C94.7109 237.935 93.4072 237.684 92.2545 236.782C90.9005 235.779 90.2489 234.325 89.9481 232.67C89.8144 231.935 89.7251 231.199 89.6358 230.464C89.5914 230.096 89.5471 229.728 89.4967 229.361C89.3966 228.659 89.5471 227.907 90.0985 227.506L90.1818 227.445C91.0596 226.811 91.9845 226.143 92.9564 225.851C94.811 225.299 96.5156 226.904 96.0648 228.809ZM95.1622 195.165C93.8087 196.669 93.0062 198.424 93.0565 200.129C93.0062 201.884 93.2567 202.987 93.7584 203.889C94.5604 205.243 95.9642 205.895 97.4183 205.695C99.2231 205.444 100.877 203.94 101.229 202.134C101.63 200.079 101.129 198.224 99.8747 196.569C99.7248 196.369 99.5873 196.182 99.4498 195.994L99.4488 195.992L99.4477 195.991C99.3102 195.803 99.1728 195.616 99.0229 195.416C98.0201 193.962 96.3652 193.862 95.1622 195.165ZM62.223 221.038C65.4814 220.486 68.1391 224.297 67.3365 227.455C66.6849 230.012 64.1279 231.266 61.7214 230.213C59.3148 229.16 57.7606 225.952 58.5128 223.394C58.8635 221.99 60.067 220.636 62.223 221.038ZM129.856 177.365C129.004 178.719 128.553 180.223 128.603 181.828C128.603 183.031 128.854 184.134 129.455 185.137C130.357 186.641 131.812 187.394 133.366 187.142C134.87 186.942 136.123 185.739 136.374 183.984C136.825 181.226 135.822 178.819 134.017 176.814C132.764 175.409 130.859 175.761 129.856 177.365ZM52.4488 194.702C52.5469 194.988 52.644 195.271 52.7972 195.516C53.5493 196.82 53.9002 198.174 53.6496 199.677C53.449 200.981 52.7471 201.984 51.4435 202.385C50.0899 202.837 48.9368 202.385 47.9842 201.383C47.1319 200.43 46.6806 199.276 46.3798 198.073C46.2294 197.472 46.0289 196.87 45.7281 196.318C45.0763 194.914 45.4272 193.61 46.6806 192.758C46.9313 192.608 47.1695 192.432 47.4076 192.257C47.6458 192.082 47.8839 191.906 48.1346 191.755C49.0871 191.154 50.0899 191.053 51.0926 191.605C52.0452 192.157 52.4463 193.009 52.2457 194.162C52.3236 194.338 52.3864 194.521 52.4488 194.702ZM108.548 122.16C109.902 121.458 110.404 120.255 110.453 118.951C110.504 116.745 109 114.238 107.045 112.734C105.039 111.179 102.532 112.182 102.231 114.739C102.081 115.892 102.131 117.146 102.332 118.3C102.582 119.754 103.334 121.007 104.588 121.859C105.841 122.712 107.195 122.912 108.548 122.16ZM74.4561 204.541C74.4561 204.157 74.4501 203.772 74.4447 203.388C74.4339 202.619 74.4225 201.85 74.4561 201.082C74.5562 199.528 76.0103 198.524 77.5645 199.026C78.2161 199.227 78.8179 199.577 79.319 200.029C80.4722 201.082 81.2742 202.335 81.876 203.789C82.3274 204.892 82.4275 206.045 81.9761 207.199C81.475 208.653 80.4722 209.555 78.9683 209.806C77.4141 210.057 76.2106 209.455 75.3084 208.201C74.5562 207.098 74.3056 205.845 74.4561 204.541ZM122.286 145.476C124.141 144.724 125.344 142.818 125.344 140.713C125.344 138.657 124.241 136.952 122.586 136.401C120.832 135.748 118.826 136.401 117.623 137.904C116.269 139.609 116.32 142.768 117.723 144.423C118.826 145.726 120.631 146.127 122.286 145.476ZM73.6038 158.863C73.6038 159.716 73.403 160.618 72.9019 161.37C71.4981 163.576 68.6402 163.777 66.9858 161.771C65.7823 160.317 65.4316 158.562 65.4819 156.707C65.4819 156.294 65.5664 155.88 65.6508 155.466C65.6789 155.328 65.7071 155.19 65.7325 155.052C66.1838 152.947 68.0384 152.094 69.9942 153.047C71.9992 153.949 73.6038 156.557 73.6038 158.863ZM93.3195 139.962C93.3644 139.811 93.4104 139.66 93.4575 139.509C93.3071 138.105 92.7053 137.002 91.5521 136.049C91.4785 135.986 91.3995 135.922 91.3199 135.858C91.0223 135.617 90.7079 135.363 90.5498 135.047C89.6975 133.542 87.3407 133.241 85.8871 135.097C84.3329 137.102 84.2826 140.211 85.8368 142.267C87.7417 144.774 91.051 144.573 92.6052 141.866C92.9304 141.255 93.1242 140.612 93.319 139.963L93.3195 139.962ZM120.481 165.382C120.431 167.186 119.679 168.791 118.024 169.844C115.818 171.298 113.061 170.395 112.208 167.939C111.156 164.981 112.259 162.072 115.768 160.969C117.122 160.518 118.375 160.969 119.328 162.072C120.13 162.975 120.431 164.078 120.481 165.382ZM96.4745 170.67C96.5481 170.39 96.6212 170.11 96.7164 169.844C96.6158 167.137 93.6577 164.078 91.0006 164.078C89.3463 164.028 88.0426 165.231 88.1433 166.785C88.1931 167.738 88.2937 168.691 88.4939 169.643C88.7948 171.148 89.4967 172.451 90.8004 173.304C92.6555 174.557 95.0117 174.006 96.0145 172C96.2326 171.595 96.3538 171.132 96.4745 170.67ZM69.2917 132.088C69.2917 133.793 68.4399 135.197 67.0356 135.748C65.6318 136.3 64.0278 135.899 62.9249 134.646C61.4205 132.891 60.9697 130.835 61.4205 128.579C61.6213 127.726 62.0726 127.024 62.7242 126.472C64.1279 125.42 65.9327 125.77 66.8857 127.225C67.1861 127.676 67.5373 128.127 67.888 128.578V128.579C68.841 129.681 69.2917 130.784 69.2917 132.088ZM44.3096 151.74C44.2587 151.937 44.2144 152.109 44.1738 152.245C44.2741 154.451 44.7253 155.955 46.0289 157.058C47.9842 158.763 50.7417 158.111 51.6942 155.755C52.2959 154.2 52.0953 152.746 51.0926 151.442C50.6915 150.891 50.3907 150.39 50.2403 149.738C49.8893 148.334 48.4855 147.582 47.0316 147.983C46.079 148.234 45.327 148.885 44.9259 149.788C44.6331 150.483 44.4472 151.205 44.3096 151.74ZM75.0579 178.217C75.0579 179.17 74.8068 180.123 74.1552 181.026C72.7514 182.83 70.2447 182.981 68.5401 181.326C66.9355 179.772 66.4842 176.964 67.487 174.959C68.1391 173.655 69.2917 173.053 70.7459 173.253C70.7962 173.253 70.8335 173.266 70.8714 173.279C70.9087 173.291 70.9466 173.304 70.9964 173.304C73.7542 173.705 75.0579 175.259 75.0579 178.217ZM105.39 183.633V186.792C105.39 187.744 105.691 188.998 106.693 190C108.348 191.655 110.955 191.154 111.858 189.048C112.86 186.741 111.055 182.379 108.749 181.427C107.045 180.725 105.39 181.828 105.39 183.633Z" fill="white"/>
<path d="M156.159 107.281C155.704 112.123 154.809 117.837 153.218 123.427C151.395 129.805 148.34 135.61 144.674 141.062C138.489 150.244 130.328 157.209 120.416 162.078C111.904 166.289 102.994 169.155 93.5268 170.157C88.199 170.727 82.8696 170.893 77.5429 170.185C72.7152 169.551 68 168.354 63.5543 166.305C60.6651 164.99 58.081 163.228 56.0235 160.77C55.1008 159.685 54.3924 158.448 53.7894 157.154C52.5635 154.394 52.7776 151.719 54.0972 149.102C54.933 147.489 56.0868 146.103 57.3942 144.899C60.0124 142.456 62.9656 140.445 66.1855 138.894C68.946 137.607 71.7687 136.393 74.4989 135.07C79.7785 132.578 85.0278 130.05 90.282 127.455C93.0149 126.098 95.633 124.498 98.156 122.821C103.56 119.195 108.062 114.653 111.753 109.304C114.838 104.814 116.715 99.854 117.65 94.4791C119.025 86.5499 118.087 78.9346 115.08 71.5185C114.603 70.335 114.022 69.1769 113.406 68.0491C109.583 61.1714 104.72 55.0833 98.9244 49.7254C93.9446 45.108 88.5021 41.2265 82.7652 37.6572C78.2784 34.8641 73.8327 31.9734 69.4184 29.119C67.4984 27.8837 65.6947 26.4561 63.997 24.9699C63.5251 24.5609 63.1615 24.0597 62.9731 23.4721C62.6468 22.5029 62.3205 21.5338 61.9611 20.5619C61.4941 19.2446 61.532 17.9353 61.9422 16.5894C63.2231 12.354 65.7158 8.9589 69.5315 6.68253C73.7726 4.13836 78.4158 2.87253 83.301 2.36699C91.9526 1.46551 100.046 3.34467 107.57 7.70079C113.808 11.3115 119.261 15.9006 123.977 21.3038C127.923 25.8022 131.37 30.6632 134.78 35.5549C139.095 41.7662 143.059 48.1506 146.486 54.928C151.629 65.0781 154.705 75.8311 155.886 87.1344C156.52 93.5137 156.75 99.8924 156.159 107.281Z" fill="#FF90E7"/>
<mask id="mask0_1923_25079" style="mask-type:alpha" maskUnits="userSpaceOnUse" x="52" y="2" width="105" height="169">
<path d="M156.16 107.281C155.706 112.123 154.81 117.837 153.219 123.427C151.397 129.805 148.342 135.61 144.676 141.062C138.49 150.244 130.329 157.209 120.418 162.078C111.905 166.289 102.995 169.155 93.5283 170.157C88.2005 170.727 82.8711 170.893 77.5444 170.185C72.7167 169.551 68.0015 168.354 63.5558 166.305C60.6665 164.99 58.0825 163.228 56.0249 160.77C55.1023 159.685 54.3939 158.448 53.7909 157.154C52.565 154.394 52.779 151.719 54.0987 149.102C54.9345 147.489 56.0883 146.103 57.3957 144.899C60.0139 142.456 62.967 140.445 66.187 138.894C68.9474 137.607 71.7702 136.393 74.5004 135.07C79.78 132.578 85.0293 130.05 90.2835 127.455C93.0163 126.098 95.6345 124.498 98.1574 122.821C103.562 119.195 108.063 114.653 111.755 109.304C114.839 104.814 116.717 99.854 117.651 94.4791C119.026 86.5499 118.088 78.9346 115.081 71.5185C114.604 70.335 114.024 69.1769 113.407 68.0491C109.584 61.1714 104.722 55.0833 98.9259 49.7254C93.9461 45.108 88.5036 41.2265 82.7667 37.6572C78.2799 34.8641 73.8342 31.9734 69.4199 29.119C67.4998 27.8837 65.6961 26.4561 63.9985 24.9699C63.5266 24.5609 63.1629 24.0597 62.9746 23.4721C62.6483 22.5029 62.3219 21.5338 61.9626 20.5619C61.4956 19.2446 61.5335 17.9353 61.9437 16.5894C63.2246 12.354 65.7172 8.9589 69.533 6.68253C73.7741 4.13836 78.4173 2.87253 83.3024 2.36699C91.954 1.46551 100.047 3.34467 107.572 7.70079C113.81 11.3115 119.263 15.9006 123.978 21.3038C127.925 25.8022 131.371 30.6632 134.782 35.5549C139.096 41.7662 143.06 48.1506 146.488 54.928C151.631 65.0781 154.707 75.8311 155.888 87.1344C156.522 93.5137 156.751 99.8924 156.16 107.281Z" fill="black"/>
</mask>
<g mask="url(#mask0_1923_25079)">
<path d="M74.721 96.8715C74.5706 97.0961 74.53 97.1946 74.4585 97.2568C71.198 101.097 69.0712 105.554 67.3649 110.243C65.2501 115.978 63.7294 121.856 62.4078 127.782C61.4256 132.218 60.6106 136.666 59.9266 141.157C59.2978 145.349 58.769 149.549 58.539 153.802C58.2966 157.752 58.5629 161.637 59.7448 165.418C62.1963 173.154 67.3963 178.123 75.175 180.347C82.0311 182.306 88.8021 181.636 95.3448 178.933C104.206 175.282 110.374 168.821 114.209 160.113C115.369 157.47 116.165 154.736 116.667 151.879C116.677 151.746 116.686 151.612 116.702 151.378C116.296 151.416 115.89 151.455 115.517 151.496C107.863 152.306 100.371 151.75 93.0411 149.354C88.0781 147.73 83.575 145.297 79.7582 141.702C76.2568 138.398 73.7063 134.488 72.559 129.735C71.6764 126.009 71.7998 122.319 73.4909 118.807C75.5008 114.576 78.9762 111.995 83.4305 110.794C84.9041 110.392 86.4621 110.232 88.0288 109.938C87.998 109.902 87.9071 109.762 87.8134 109.654C85.5665 107.648 84.9631 105.219 85.9697 102.364C86.4692 100.987 87.2268 99.7624 88.1452 98.6498C89.5787 96.9013 91.3278 95.4434 93.1969 94.1954C97.4624 91.3668 102.126 89.5744 107.083 88.4082C114.194 86.7198 121.412 86.3832 128.63 87.4931C132.023 87.9991 135.356 88.9039 138.565 90.1372C138.828 90.2227 139.057 90.3061 139.284 90.4224C139.389 90.3629 139.459 90.3337 139.496 90.2693C143.447 86.1748 146.755 81.6653 148.94 76.3716C150.28 73.0699 151.056 69.6611 151.003 66.0938C150.897 59.4298 148.177 54.0958 142.878 50.061C141.217 48.8019 139.404 47.8012 137.472 47.061C137.31 46.9824 137.111 46.9349 136.913 46.8875C136.837 47.0166 136.729 47.11 136.687 47.2414C133.631 53.4493 129.45 58.906 124.667 63.8501C119.741 68.9187 114.259 73.2761 108.097 76.7791C104.807 78.6337 101.338 80.1733 97.6475 81.0245C95.3589 81.537 93.0584 81.7465 90.6919 81.4466C89.5257 81.2978 88.3735 80.9482 87.3356 80.4049C84.6785 78.9757 83.4278 76.6692 83.3326 73.7042C83.2503 71.513 83.8299 69.469 84.6444 67.4418C86.2105 63.7857 88.5478 60.654 91.3315 57.8567C96.0673 53.1109 101.654 49.6685 107.817 47.107C112.595 45.1211 117.589 43.8899 122.76 43.5116C126.982 43.235 131.128 43.5583 135.18 44.7491C135.443 44.8348 135.675 44.8846 135.971 44.9725C136.085 44.7788 136.164 44.6162 136.243 44.4536C137.609 41.2544 138.548 37.9243 138.658 34.4356C138.865 26.6503 135.69 20.6122 129.086 16.4862C125.575 14.2909 121.638 13.3771 117.552 13.1588C114.335 13.0013 111.186 13.3192 108.045 14.0075C107.806 14.0581 107.568 14.1086 107.36 14.1949C107.209 15.3947 107.094 16.5633 106.945 17.7296C106.312 22.4594 104.985 27.0063 103.066 31.3772C100.23 37.8021 96.464 43.5905 91.4127 48.5159C88.9244 50.9308 86.1894 53.0258 83.023 54.5529C81.0077 55.488 78.9085 56.1818 76.6914 56.1612C75.8169 56.1672 74.9158 56.0708 74.0575 55.8425C71.2868 55.0778 69.594 52.8413 69.3359 49.7975C69.1248 47.5301 69.6113 45.3788 70.3316 43.2439C70.5032 42.718 70.5383 42.2162 70.4415 41.6715C69.6844 37.1135 69.7682 32.5471 70.5253 27.9605C71.8084 20.1831 74.7919 13.0961 79.4703 6.76622C81.6972 3.76158 84.2352 1.11487 87.3123 -1.05716C89.5057 -2.6185 91.8787 -3.86471 94.5688 -4.34917C98.4841 -5.05058 101.661 -3.85359 104.025 -0.629061C105.591 1.49754 106.393 3.9742 106.884 6.56366C107.197 8.33376 107.375 10.128 107.351 11.9082C107.364 12.2116 107.379 12.4816 107.386 12.852C107.726 12.8084 107.998 12.7602 108.304 12.7144C111.748 12.0137 115.267 11.688 118.778 11.9669C123.292 12.316 127.543 13.5543 131.256 16.2344C138.102 21.2177 140.92 28.0378 140.066 36.4166C139.766 39.2534 138.97 41.9882 137.878 44.6351C137.759 44.8957 137.671 45.1921 137.547 45.5197C137.841 45.6411 138.101 45.7602 138.362 45.8792C142.573 47.6863 146.157 50.2901 148.786 54.0375C151.937 58.4936 153.001 63.4767 152.457 68.8515C151.952 74.1615 149.94 78.8961 147.106 83.371C145.483 85.9134 143.603 88.2702 141.566 90.4814C141.382 90.7038 141.165 90.9241 140.946 91.1774C141.271 91.3348 141.53 91.4874 141.79 91.6065C145.198 93.3572 148.343 95.4931 150.933 98.364C157.86 106.043 159.568 114.802 155.966 124.502C154.186 129.286 151.248 133.317 147.667 136.933C142.352 142.277 135.975 145.967 128.908 148.465C125.703 149.586 122.45 150.434 119.116 151.008C118.91 151.061 118.707 151.081 118.434 151.129C118.228 152.157 118.055 153.187 117.818 154.179C114.785 167.751 104.376 179.597 89.3411 182.581C83.7157 183.701 78.1168 183.478 72.7111 181.453C64.4215 178.352 59.3946 172.353 57.4767 163.713C56.8344 160.878 56.6672 157.975 56.8371 155.061C57.0893 150.978 57.5774 146.876 58.197 142.818C59.0862 136.829 60.2762 130.861 61.7942 125.016C63.3598 118.973 65.1521 113.046 67.7026 107.341C69.3337 103.723 71.3187 100.332 74.0121 97.3937C74.1214 97.2666 74.267 97.1085 74.3768 96.9819C74.4461 96.9532 74.4796 96.9554 74.721 96.8715ZM99.0599 112.289C99.4166 112.482 99.6076 112.63 99.804 112.711C102.599 114.083 105.099 115.838 107.37 117.98C112 122.438 115.122 127.801 117.015 133.917C118.496 138.694 119.03 143.572 118.684 148.524C118.665 148.792 118.677 149.095 118.654 149.43C118.96 149.384 119.196 149.366 119.4 149.347C121.213 148.902 123.085 148.563 124.869 148.049C132.35 145.881 139.152 142.356 144.936 137.044C148.563 133.734 151.587 129.911 153.649 125.416C155.433 121.539 156.32 117.5 155.979 113.24C155.599 108.574 153.834 104.484 150.927 100.851C147.99 97.1832 144.241 94.5342 140.045 92.5265C139.947 92.4859 139.847 92.4789 139.746 92.4718C139.677 92.501 139.608 92.5297 139.572 92.5606C139.464 92.6542 139.322 92.7787 139.214 92.8717C132.512 99.2959 124.839 104.206 116.315 107.846C111.67 109.842 106.86 111.321 101.836 112.012C100.99 112.087 100.111 112.161 99.0599 112.289ZM116.951 149.748C117.013 149.348 117.069 149.016 117.057 148.713C117.107 147.035 117.192 145.326 117.142 143.642C116.835 136.493 114.671 129.921 110.574 124.087C106.11 117.724 100.335 113.286 92.5026 111.831C88.9845 111.182 85.5773 111.347 82.2291 112.592C76.5669 114.718 73.2674 119.598 73.3486 125.655C73.3962 128.819 74.268 131.737 75.7563 134.497C77.5443 137.783 80.012 140.476 82.983 142.701C87.873 146.337 93.4459 148.374 99.4187 149.498C104.065 150.36 108.725 150.551 113.427 150.14C114.578 150.019 115.732 149.864 116.951 149.748ZM135.405 46.345C135.111 46.2236 134.981 46.1473 134.816 46.1022C131.852 45.2227 128.786 44.8403 125.694 44.826C121.627 44.8108 117.618 45.4048 113.706 46.5435C105.401 48.9554 98.0913 53.0169 91.9788 59.1793C89.6648 61.5052 87.6998 64.125 86.2495 67.083C85.3441 68.9695 84.7044 70.9085 84.5908 73.0185C84.4236 76.3689 86.0714 78.77 89.2632 79.7663C91.3045 80.38 93.3907 80.3573 95.4639 80.0315C98.897 79.4984 102.078 78.2413 105.146 76.6741C110.131 74.1306 114.628 70.8815 118.785 67.2048C124.447 62.1876 129.416 56.5168 133.334 49.9993C134.087 48.8417 134.711 47.6077 135.405 46.345ZM138.024 91.6119C137.764 91.4929 137.537 91.3765 137.34 91.2953C134.426 90.1838 131.424 89.3693 128.331 88.8839C121.216 87.748 114.162 88.1295 107.186 89.8271C102.533 90.9815 98.0761 92.6872 94.059 95.3313C92.0849 96.6393 90.2638 98.1595 88.8211 100.042C88.0846 100.965 87.5077 102.001 87.1581 103.153C86.421 105.523 87.1483 107.624 89.2053 108.978C89.8823 109.395 90.6286 109.784 91.3862 110.005C93.4253 110.651 95.5261 110.899 97.648 110.845C100.644 110.786 103.568 110.318 106.446 109.544C118.305 106.305 128.638 100.37 137.623 92.0546C137.731 91.9615 137.843 91.8013 138.024 91.6119ZM71.1309 45.2833C70.5459 47.3942 70.2629 49.526 71.1239 51.637C71.7808 53.2967 73.0943 54.2287 74.7843 54.5821C75.3147 54.6865 75.9148 54.7623 76.4522 54.7661C78.1991 54.7872 79.8448 54.331 81.4374 53.6688C84.0355 52.5727 86.3296 51.0184 88.4747 49.1848C92.4101 45.7951 95.6149 41.783 98.2796 37.3297C101.933 31.2308 104.471 24.7514 105.501 17.696C105.641 16.6635 105.747 15.6287 105.853 14.5939C105.718 14.5846 105.654 14.5465 105.62 14.5441C105.279 14.6211 104.938 14.6981 104.627 14.8109C93.2846 18.3553 83.9565 24.8309 76.6762 34.2401C74.6804 36.8238 73.0358 39.6674 71.8458 42.7446C71.6796 43.2036 71.6131 43.6697 71.7478 44.1498C72.0125 45.1768 72.2408 46.235 72.4697 47.2932C72.5222 47.4986 72.5109 47.6659 72.5634 47.8713C71.7024 47.206 71.605 46.1906 71.1309 45.2833ZM105.881 13.2175C105.893 13.0502 105.936 12.9187 105.945 12.7849C106 9.59489 105.716 6.44839 104.681 3.45116C104.122 1.83196 103.317 0.363675 102.161 -0.893794C100.44 -2.72864 98.3093 -3.51626 95.7745 -3.32356C93.9492 -3.18214 92.2607 -2.5941 90.6562 -1.76485C88.3903 -0.611998 86.3999 0.92992 84.594 2.72005C80.4092 6.7982 77.3148 11.625 74.991 16.9763C71.9053 24.0898 70.481 31.4874 71.0497 39.2261C71.086 39.6657 71.1228 40.1053 71.1926 40.5473C74.6707 33.5957 79.6342 27.9918 85.6774 23.3038C91.7223 18.5824 98.4484 15.186 105.881 13.2175Z" fill="#0B132B"/>
</g>
<path d="M9.7965 26.0361C9.74238 25.1702 9.68827 24.3043 9.58003 23.4385C9.30945 21.6526 8.55182 20.1373 7.14479 19.0009C5.68362 17.8103 4.27659 16.5656 2.38251 16.1868C2.11193 16.1327 1.78723 15.9704 1.62487 15.7539C1.40841 15.4292 1.08371 14.9963 1.13783 14.6716C1.19194 14.3469 1.62487 13.9139 2.00369 13.8598C6.98244 12.9398 9.30945 9.47637 10.6624 5.03881C10.9871 3.95648 11.1494 2.76591 11.3659 1.62946C11.5282 1.25065 11.4741 0.871832 11.6365 0.547133C11.7988 0.27655 12.1235 -0.0481501 12.34 0.00596651C12.5564 0.00596651 12.827 0.384783 12.9894 0.655366C13.0976 0.871833 13.0435 1.14242 13.0435 1.413C12.9894 2.54945 12.9353 3.63178 12.8811 4.76823C12.827 6.01291 12.7188 7.25759 12.7188 8.50227C12.6647 10.5587 13.9635 11.8034 15.587 12.6151C16.6152 13.1022 17.7516 13.3728 18.9963 13.2104C19.754 13.1022 20.5116 13.3187 21.3233 13.4269C21.5939 13.481 21.8645 13.5351 22.0269 13.6975C22.2433 13.9681 22.5139 14.3469 22.5139 14.6175C22.5139 15.1045 22.0269 15.1586 21.5939 15.1045C20.8904 15.0504 20.241 14.9963 19.5375 14.888C18.2387 14.7257 17.0481 15.0504 15.8576 15.4833C15.3164 15.6998 14.7752 16.1327 14.5046 16.6198C13.9094 17.5397 13.3141 18.4597 13.0435 19.4879C12.3941 21.8691 11.9612 24.3043 11.42 26.6855C11.3118 27.1725 11.3118 27.6596 11.0953 28.0925C10.9871 28.3631 10.6082 28.6878 10.3918 28.6878C10.1753 28.6878 9.7965 28.309 9.7965 28.0384C9.74238 27.389 9.7965 26.6855 9.7965 26.0361Z" fill="white"/>
</g>
<defs>
<clipPath id="clip0_1923_25079">
<rect width="144" height="272" fill="white"/>
</clipPath>
</defs>
</svg>
