<svg width="186" height="186" viewBox="0 0 186 186" fill="none" xmlns="http://www.w3.org/2000/svg">
<g clip-path="url(#clip0_1923_24962)">
<g clip-path="url(#clip1_1923_24962)">
<g clip-path="url(#clip2_1923_24962)">
<path d="M185.915 185.251C186.015 205.151 184.215 220.151 179.615 234.651C172.715 256.551 160.115 274.651 142.615 289.251C122.015 306.451 98.5154 317.751 72.1154 322.751C59.7154 325.051 47.2154 325.451 34.6154 324.151C17.4154 322.451 0.415428 319.251 -16.0846 313.851C-23.4846 311.351 -30.8846 308.651 -38.0846 305.651C-47.5846 301.851 -56.1846 296.551 -64.2846 290.351C-71.2846 284.951 -78.0846 279.451 -84.2846 273.151C-92.1846 265.151 -98.7846 256.251 -103.685 246.251C-110.685 232.051 -116.485 217.451 -120.285 202.051C-121.885 195.551 -122.785 188.851 -123.185 182.151C-123.685 174.451 -124.085 166.651 -123.985 158.951C-123.785 141.251 -118.485 124.851 -109.985 109.351C-99.8846 90.8512 -85.4846 76.2512 -67.9846 64.7512C-63.5846 61.8512 -59.3846 58.7512 -55.2846 55.3512C-43.0846 45.0512 -30.2846 35.6512 -16.6846 27.2512C3.81543 14.7512 25.8154 6.25116 49.5154 2.05116C61.2154 0.0511563 73.0154 -0.748844 84.8154 0.851156C104.115 3.55116 119.315 12.7512 129.915 29.3512C134.315 36.3512 137.615 43.8512 140.515 51.6512C142.015 55.7512 143.415 59.7512 144.815 63.8512C148.915 75.6512 153.715 87.1512 159.415 98.2512C163.215 105.651 166.815 113.151 170.515 120.551C181.215 142.451 186.315 165.651 185.915 185.251Z" fill="#27DAB7"/>
<mask id="mask0_1923_24962" style="mask-type:alpha" maskUnits="userSpaceOnUse" x="-125" y="0" width="311" height="325">
<path d="M185.915 185.251C186.015 205.151 184.215 220.151 179.615 234.651C172.715 256.551 160.115 274.651 142.615 289.251C122.015 306.451 98.5154 317.751 72.1154 322.751C59.7154 325.051 47.2154 325.451 34.6154 324.151C17.4154 322.451 0.415428 319.251 -16.0846 313.851C-23.4846 311.351 -30.8846 308.651 -38.0846 305.651C-47.5846 301.851 -56.1846 296.551 -64.2846 290.351C-71.2846 284.951 -78.0846 279.451 -84.2846 273.151C-92.1846 265.151 -98.7846 256.251 -103.685 246.251C-110.685 232.051 -116.485 217.451 -120.285 202.051C-121.885 195.551 -122.785 188.851 -123.185 182.151C-123.685 174.451 -124.085 166.651 -123.985 158.951C-123.785 141.251 -118.485 124.851 -109.985 109.351C-99.8846 90.8512 -85.4846 76.2512 -67.9846 64.7512C-63.5846 61.8512 -59.3846 58.7512 -55.2846 55.3512C-43.0846 45.0512 -30.2846 35.6512 -16.6846 27.2512C3.81543 14.7512 25.8154 6.25116 49.5154 2.05116C61.2154 0.0511563 73.0154 -0.748844 84.8154 0.851156C104.115 3.55116 119.315 12.7512 129.915 29.3512C134.315 36.3512 137.615 43.8512 140.515 51.6512C142.015 55.7512 143.415 59.7512 144.815 63.8512C148.915 75.6512 153.715 87.1512 159.415 98.2512C163.215 105.651 166.815 113.151 170.515 120.551C181.215 142.451 186.315 165.651 185.915 185.251Z" fill="black"/>
</mask>
<g mask="url(#mask0_1923_24962)">
<path d="M21.7546 -149.949C20.3546 -149.549 18.8546 -149.149 17.4546 -148.749C8.75456 -146.649 1.35455 -142.249 -5.34544 -136.549C-14.5454 -128.649 -22.4454 -119.549 -29.9454 -110.049C-43.5454 -92.5492 -55.5454 -73.8492 -66.7454 -54.7492C-90.4454 -14.1492 -111.245 27.8508 -128.645 71.5508C-136.645 91.5508 -142.545 112.251 -146.145 133.551C-149.245 151.851 -150.545 170.251 -149.545 188.751C-148.445 211.051 -144.345 232.751 -135.645 253.351C-129.545 267.951 -121.445 281.251 -110.545 292.851C-109.545 293.851 -108.545 294.851 -107.445 295.851C-107.345 295.951 -107.145 295.951 -106.745 295.951C-107.045 293.651 -107.245 291.551 -107.545 289.351C-108.645 279.851 -108.545 270.351 -107.645 260.851C-106.545 249.051 -104.045 237.451 -100.545 226.151C-100.245 225.151 -100.245 223.951 -100.545 222.851C-104.145 206.551 -105.445 190.151 -104.645 173.551C-103.045 139.451 -93.7454 107.351 -78.1454 77.2508C-55.4454 33.5508 -23.8454 -2.34918 17.1546 -29.8492C32.2546 -39.9492 48.2546 -48.5492 65.5546 -54.4492C70.8546 -56.2492 76.3546 -57.4492 81.7546 -58.7492C83.4546 -59.1492 85.2546 -59.1492 86.9546 -59.1492C87.6546 -59.1492 88.4546 -58.8492 89.1546 -58.6492C89.1546 -58.4492 89.1546 -58.3492 89.1546 -58.1492C88.7546 -57.9492 88.2546 -57.5492 87.8546 -57.5492C72.1546 -55.9492 57.8546 -50.0492 43.9546 -42.9492C20.0546 -30.8492 -1.04544 -14.8492 -20.0454 3.95081C-46.9454 30.5508 -68.3454 61.0508 -83.2454 95.8508C-91.8454 115.851 -97.4454 136.551 -100.145 158.151C-102.445 177.251 -102.245 196.251 -98.8454 215.251C-98.6454 216.151 -98.4454 216.951 -98.2454 218.351C-97.8454 217.451 -97.5454 216.951 -97.3454 216.451C-89.8454 196.751 -79.5454 178.751 -66.4454 162.251C-65.5454 161.051 -65.3454 159.951 -65.3454 158.551C-65.5454 151.651 -66.1454 144.751 -65.6454 137.951C-63.2454 102.351 -50.3454 71.3508 -24.2454 46.4508C-11.1454 34.0508 4.15456 25.4508 21.7546 21.4508C40.8546 17.1508 59.2546 18.8508 76.6546 28.3508C79.2546 29.7508 81.7546 31.4508 84.3546 33.0508C87.2546 31.6508 90.2546 30.2508 93.3546 28.8508C94.3546 28.4508 94.2546 27.5508 94.2546 26.8508C94.3546 23.4508 94.4546 19.9508 94.4546 16.5508C94.2546 2.75081 94.3546 -11.1492 93.7546 -24.9492C93.1546 -41.8492 91.6546 -58.7492 88.2546 -75.4492C86.2546 -85.4492 83.1546 -95.0492 78.7546 -104.349C78.3546 -105.149 78.0546 -105.949 78.0546 -106.849C78.3546 -106.349 78.7546 -105.849 78.9546 -105.349C84.5546 -94.4492 88.2546 -82.9492 90.5546 -70.9492C93.1546 -57.5492 94.5546 -44.0492 95.4546 -30.5492C96.7546 -12.3492 96.8546 5.85081 96.6546 24.1508C96.6546 24.9508 96.6546 25.7508 96.6546 26.5508C96.6546 26.6508 96.7546 26.8508 96.9546 27.1508C97.8546 26.8508 98.8546 26.5508 99.8546 26.1508C110.855 22.1508 122.155 19.8508 133.955 20.2508C162.555 21.0508 184.555 33.8508 200.055 57.8508C208.055 70.3508 212.355 84.1508 213.855 98.8508C216.355 122.751 211.355 145.351 201.155 166.851C198.155 173.151 194.455 179.151 190.855 185.251C190.055 186.751 189.855 187.851 190.355 189.451C194.755 202.851 195.855 216.651 194.355 230.651C191.155 261.351 178.555 288.051 159.155 311.751C146.955 326.551 132.655 338.851 115.655 347.851C104.555 353.751 92.7546 357.751 80.1546 358.951C65.3546 360.351 51.1546 357.951 37.8546 350.951C36.1546 350.051 34.9546 350.151 33.3546 351.151C20.0546 359.851 5.75456 365.851 -9.94543 368.451C-30.0454 371.751 -49.3454 369.451 -67.1454 358.951C-82.4454 349.951 -92.9454 336.751 -99.9454 320.551C-102.245 315.151 -104.045 309.651 -105.345 303.951C-105.645 302.751 -105.945 301.751 -106.945 300.851C-121.245 287.851 -131.445 272.051 -138.845 254.351C-144.945 239.651 -148.745 224.351 -150.945 208.551C-153.545 190.151 -153.645 171.751 -151.945 153.251C-149.145 123.451 -141.545 94.9508 -130.245 67.3508C-110.145 18.2508 -86.4454 -29.0492 -58.1454 -73.9492C-47.9454 -90.1492 -36.9454 -105.749 -24.3454 -120.249C-18.8454 -126.549 -12.9454 -132.349 -6.54544 -137.749C1.85455 -144.249 11.0546 -148.749 21.7546 -149.949ZM188.055 183.051C188.255 183.051 188.555 183.151 188.755 183.151C189.255 182.451 189.755 181.751 190.155 181.051C193.155 175.551 196.355 170.251 199.055 164.551C209.055 143.051 213.855 120.551 210.855 96.7508C208.855 81.1508 203.655 66.7508 194.155 54.1508C179.555 34.7508 160.155 24.3508 135.855 23.2508C122.955 22.6508 110.555 25.2508 98.5546 29.8508C97.2546 30.3508 96.8546 31.0508 96.8546 32.3508C96.8546 35.7508 96.7546 39.0508 96.5546 42.4508C96.4546 43.7508 96.9546 44.7508 97.7546 45.6508C103.355 52.1508 107.655 59.3508 111.055 67.2508C114.455 75.0508 116.755 83.1508 118.155 91.5508C118.355 92.8508 118.855 93.6508 120.255 94.0508C121.855 94.4508 123.455 95.1508 124.955 95.7508C140.455 101.751 154.155 110.551 165.155 123.151C179.055 139.051 185.855 157.851 187.155 178.751C187.355 180.151 187.855 181.651 188.055 183.051ZM81.2546 35.0508C81.0546 34.7508 80.9546 34.6508 80.8546 34.5508C80.6546 34.3508 80.3546 34.1508 80.0546 33.9508C69.4546 26.9508 57.8546 23.1508 45.1546 22.3508C28.8546 21.4508 13.5546 25.3508 -0.745438 33.0508C-19.0454 42.9508 -33.0454 57.2508 -43.5454 75.0508C-58.0454 99.5508 -64.1454 126.151 -62.6454 154.551C-62.6454 155.351 -62.4454 156.051 -62.3454 156.851C-62.0454 156.751 -61.8454 156.751 -61.7454 156.651C-61.2454 156.151 -60.7454 155.551 -60.3454 155.051C-39.0454 130.651 -13.7454 111.651 16.4546 99.5508C17.6546 99.0508 18.3546 98.2508 19.0546 97.2508C22.9546 91.5508 26.7546 85.6508 30.9546 80.1508C44.5546 62.2508 60.6546 47.0508 80.1546 35.7508C80.5546 35.4508 80.8546 35.2508 81.2546 35.0508ZM187.755 191.351C187.555 191.351 187.455 191.451 187.255 191.451C187.155 192.151 186.955 192.851 186.955 193.551C186.555 199.251 185.655 204.851 184.155 210.351C175.055 244.951 154.955 271.451 124.755 290.351C110.755 299.051 95.4546 304.251 78.7546 304.151C77.4546 304.151 76.9546 304.851 76.4546 305.851C67.5546 322.051 55.4546 335.551 40.6546 346.651C40.0546 347.051 39.5546 347.551 38.8546 348.151C39.7546 348.651 40.4546 349.051 41.1546 349.351C55.5546 356.451 70.7546 358.151 86.4546 355.251C100.155 352.751 112.655 347.151 124.255 339.451C144.155 326.251 159.855 309.051 171.955 288.651C184.055 268.151 191.355 246.051 192.055 222.151C192.355 212.451 191.155 202.851 188.455 193.451C188.255 192.651 188.055 191.951 187.755 191.351ZM117.655 142.851C117.455 143.651 117.355 144.051 117.255 144.451C115.355 154.651 112.655 164.751 109.255 174.551C103.455 191.651 95.8546 207.951 86.8546 223.551C86.1546 224.751 85.7546 225.751 86.1546 227.151C88.7546 235.851 90.0546 244.751 89.9546 253.851C89.9546 254.451 90.0546 255.051 90.1546 255.651C90.4546 255.651 90.6546 255.751 90.7546 255.751C91.4546 255.551 92.1546 255.451 92.8546 255.151C128.655 244.451 157.655 223.951 180.655 194.651C184.155 190.151 184.055 190.151 184.155 184.451C184.155 182.851 184.055 181.351 183.255 179.851C171.255 156.751 152.255 144.351 126.255 142.851C123.555 142.651 120.655 142.851 117.655 142.851ZM45.3546 178.551C46.0546 177.751 46.6546 177.051 47.3546 176.351C56.7546 165.951 67.5546 157.451 79.9546 150.951C81.5546 150.151 83.6546 149.551 84.5546 148.151C85.4546 146.751 85.3546 144.651 85.5546 142.851C87.3546 127.151 89.0546 111.351 90.7546 95.6508C90.9546 94.0508 90.9546 92.3508 91.0546 90.5508C90.4546 90.4508 90.0546 90.3508 89.7546 90.2508C86.3546 90.0508 82.8546 89.7508 79.4546 89.7508C59.8546 89.5508 41.0546 93.1508 22.6546 99.7508C21.0546 100.351 19.9546 101.251 19.1546 102.751C5.05455 126.851 -4.74544 152.551 -10.5454 179.851C-10.6454 180.351 -10.6454 180.951 -10.7454 181.751C7.65456 172.851 26.1546 170.751 45.3546 178.551ZM15.4546 103.251C15.3546 103.151 15.2546 103.051 15.1546 102.951C14.2546 103.351 13.3546 103.651 12.5546 104.051C-1.84543 110.351 -15.3454 118.351 -27.7454 127.951C-39.7454 137.151 -50.5454 147.551 -60.2454 159.051C-61.4454 160.451 -61.8454 161.851 -61.5454 163.651C-61.2454 165.351 -60.9454 167.151 -60.6454 168.851C-58.1454 182.851 -53.4454 196.051 -46.2454 208.251C-45.8454 208.951 -45.3454 209.651 -44.8454 210.551C-44.3454 209.951 -43.9454 209.651 -43.7454 209.251C-35.8454 199.451 -26.6454 191.151 -15.7454 184.651C-14.6454 184.051 -14.2454 183.151 -14.0454 182.051C-8.44542 154.751 0.954559 128.851 14.7546 104.651C15.0546 104.151 15.2546 103.651 15.4546 103.251ZM78.8546 301.251C79.9546 301.251 80.5546 301.251 81.1546 301.251C91.5546 300.951 101.355 298.351 110.855 294.251C125.955 287.651 138.855 277.951 150.055 265.951C166.455 248.351 177.655 228.051 182.355 204.351C182.855 202.051 183.155 199.751 183.455 197.551C158.655 228.051 127.755 249.051 90.0546 259.551C89.0546 274.051 85.3546 287.751 78.8546 301.251ZM-101.445 305.451C-101.345 306.251 -101.245 306.651 -101.145 307.051C-99.8454 310.951 -98.6454 314.851 -97.1454 318.551C-90.4454 334.551 -80.0454 347.551 -64.9454 356.351C-48.3454 366.051 -30.4454 368.451 -11.6454 365.551C3.85457 363.251 18.0546 357.351 31.1546 349.051C31.6546 348.751 32.0546 348.351 32.6546 347.851C30.1546 346.051 27.7546 344.451 25.3546 342.751C21.7546 345.051 17.8546 345.651 13.8546 345.551C11.3546 345.451 8.85455 345.351 6.45456 344.951C-9.84544 342.251 -24.6454 335.951 -37.3454 325.251C-38.3454 324.451 -39.2454 324.051 -40.5454 324.251C-47.5454 324.951 -54.6454 324.451 -61.5454 323.351C-75.5454 320.951 -88.0454 315.251 -99.4454 306.851C-99.9454 306.451 -100.545 306.051 -101.445 305.451ZM21.2546 257.851C18.5546 243.651 19.8546 230.151 23.9546 216.851C28.0546 203.551 34.8546 191.651 43.4546 180.951C43.2546 180.651 43.1546 180.451 43.0546 180.451C42.7546 180.251 42.4546 180.151 42.1546 180.051C35.9546 177.551 29.4546 176.151 22.7546 175.951C11.1546 175.551 0.254562 178.551 -10.0454 183.751C-11.2454 184.351 -11.8454 185.151 -11.9454 186.451C-12.8454 193.451 -14.1454 200.551 -14.8454 207.551C-16.0454 218.251 -16.4454 228.951 -15.8454 239.651C-15.7454 241.151 -15.2454 241.951 -14.0454 242.751C-8.54544 246.351 -2.84544 249.451 3.25456 252.051C8.95456 254.351 14.7546 256.351 21.2546 257.851ZM-64.4454 279.851C-64.2454 279.751 -64.1454 279.651 -63.9454 279.651C-67.5454 255.151 -60.8454 233.351 -46.9454 213.351C-56.3454 198.451 -61.9454 182.251 -64.5454 164.551C-65.3454 165.551 -65.8454 166.051 -66.2454 166.551C-68.5454 169.651 -70.8454 172.751 -72.9454 175.851C-82.6454 190.151 -90.3454 205.451 -96.1454 221.751C-96.6454 223.251 -96.7454 224.651 -96.3454 226.151C-94.5454 232.751 -92.3454 239.351 -89.6454 245.651C-84.9454 256.451 -78.7454 266.351 -70.3454 274.651C-68.3454 276.451 -66.3454 278.051 -64.4454 279.851ZM-9.74544 290.351C-9.94543 289.551 -10.1454 288.951 -10.3454 288.351C-14.8454 274.251 -17.4454 259.851 -18.4454 245.051C-18.5454 243.551 -19.2454 242.751 -20.3454 241.951C-29.5454 235.051 -37.5454 226.851 -44.1454 217.451C-44.5454 216.851 -45.0454 216.351 -45.5454 215.751C-46.0454 216.451 -46.5454 217.051 -46.9454 217.651C-52.0454 225.351 -56.0454 233.651 -58.6454 242.551C-62.3454 255.051 -63.4454 267.651 -61.0454 280.451C-60.7454 282.051 -60.0454 282.951 -58.7454 283.851C-48.9454 289.951 -38.3454 292.951 -26.8454 292.851C-21.1454 292.751 -15.5454 292.051 -9.74544 290.351ZM-42.2454 321.251C-42.4454 320.851 -42.4454 320.751 -42.4454 320.651C-42.6454 320.451 -42.8454 320.151 -43.0454 319.951C-52.1454 310.451 -58.7454 299.451 -62.1454 286.651C-62.4454 285.551 -63.0454 284.851 -63.8454 284.251C-71.6454 278.751 -77.9454 271.751 -83.2454 263.851C-89.6454 254.351 -94.1454 244.051 -97.5454 233.151C-97.7454 232.351 -98.0454 231.651 -98.3454 230.851C-99.0454 231.751 -99.2454 232.551 -99.5454 233.351C-102.345 243.751 -104.245 254.251 -104.945 264.951C-105.745 276.151 -105.245 287.351 -103.145 298.351C-102.945 299.551 -102.445 300.551 -101.445 301.351C-84.9454 314.851 -66.1454 322.051 -44.6454 321.451C-44.0454 321.451 -43.2454 321.351 -42.2454 321.251ZM46.8546 181.751C46.0546 182.751 45.4546 183.351 44.9546 184.051C40.3546 189.851 36.4546 196.051 33.1546 202.651C25.7546 217.651 21.6546 233.451 23.3546 250.351C23.6546 253.151 24.1546 255.851 24.5546 258.751C28.0546 259.251 31.2546 259.751 34.5546 260.351C35.9546 260.651 36.9546 260.051 37.8546 259.051C52.3546 242.851 62.9546 224.451 70.7546 204.251C71.1546 203.151 70.9546 202.351 70.2546 201.451C65.9546 195.951 60.9546 191.051 55.2546 187.051C52.5546 185.251 49.7546 183.651 46.8546 181.751ZM73.9546 304.051C59.2546 302.751 46.7546 297.451 36.4546 287.151C26.0546 296.451 15.0546 304.551 2.75456 311.151C11.0546 325.651 21.4546 337.651 35.5546 346.251C51.5546 334.951 64.3546 321.251 73.9546 304.051ZM23.2546 96.6508C34.3546 93.0508 45.4546 90.3508 56.8546 88.7508C68.2546 87.1508 79.7546 87.0508 91.2546 87.8508C91.4546 86.0508 91.5546 84.5508 91.6546 83.0508C92.1546 76.1508 92.5546 69.3508 93.0546 62.4508C93.3546 57.5508 93.5546 52.5508 93.7546 47.5508C93.7546 46.7508 93.7546 45.8508 93.2546 45.3508C90.4546 42.1508 87.3546 39.3508 83.8546 36.7508C58.2546 51.2508 38.9546 72.0508 23.2546 96.6508ZM183.355 172.451C181.455 154.251 174.755 138.051 162.555 124.351C150.855 111.051 136.155 102.151 119.055 96.3508C120.955 111.151 120.255 125.451 118.155 139.851C146.055 138.751 167.855 149.151 183.355 172.451ZM84.4546 221.251C85.0546 220.251 85.4546 219.551 85.8546 218.851C87.4546 215.851 89.1546 212.851 90.7546 209.751C101.155 189.551 109.155 168.551 113.655 146.151C113.855 145.251 113.855 144.351 114.055 143.351C105.055 144.351 96.7546 146.751 88.7546 150.051C87.5546 150.551 87.3546 151.351 87.1546 152.451C84.6546 169.051 80.7546 185.351 75.1546 201.251C74.7546 202.351 74.8546 203.151 75.4546 204.151C77.5546 207.551 79.5546 211.051 81.4546 214.551C82.4546 216.551 83.3546 218.751 84.4546 221.251ZM75.5546 301.051C81.9546 288.351 86.0546 274.851 87.0546 260.251C86.0546 260.451 85.3546 260.551 84.7546 260.651C76.6546 262.451 68.4546 263.851 60.1546 264.251C58.8546 264.351 58.1546 264.851 57.3546 265.751C51.5546 271.951 45.6546 278.051 39.8546 284.151C39.5546 284.451 39.2546 284.851 38.9546 285.151C47.2546 294.651 62.7546 301.151 75.5546 301.051ZM94.1546 90.8508C92.1546 109.651 90.2546 128.251 88.2546 147.051C96.7546 143.551 105.555 141.251 114.455 140.151C117.155 128.651 117.755 104.751 115.355 95.1508C108.455 93.1508 101.455 91.6508 94.1546 90.8508ZM-58.8454 287.651C-58.8454 288.151 -58.9454 288.451 -58.8454 288.651C-58.4454 289.751 -58.1454 290.951 -57.7454 292.051C-53.8454 302.651 -47.7454 311.751 -39.7454 319.751C-38.7454 320.751 -37.7454 321.251 -36.3454 320.951C-35.8454 320.851 -35.3454 320.851 -34.9454 320.751C-23.7454 319.051 -13.0454 315.551 -2.94543 310.551C-2.44543 310.351 -2.04543 309.951 -1.64543 309.751C-4.04543 304.351 -6.44543 299.051 -8.74544 293.651C-26.2454 298.251 -42.9454 296.651 -58.8454 287.651ZM-6.84544 289.351C1.95456 287.451 20.7546 276.551 25.2546 270.751C24.1546 267.751 23.0546 264.651 21.9546 261.451C8.85455 258.351 -3.54544 253.251 -15.4454 245.551C-14.3454 260.751 -11.6454 275.151 -6.84544 289.351ZM24.0546 341.651C14.0546 333.351 6.35457 323.551 0.354568 312.751C-5.54543 315.051 -11.1454 317.551 -16.8454 319.451C-22.6454 321.351 -28.5454 322.551 -34.6454 324.151C-33.9454 324.751 -33.4454 325.251 -32.7454 325.751C-22.5454 333.651 -11.0454 338.851 1.35457 341.951C6.05457 343.051 10.7546 343.951 15.5546 343.851C18.3546 343.751 21.1546 343.351 24.0546 341.651ZM40.5546 260.751C41.4546 260.851 41.8546 261.051 42.1546 261.051C46.6546 261.151 51.0546 261.151 55.5546 261.251C56.7546 261.251 57.2546 260.551 57.8546 259.851C66.5546 249.251 74.4546 237.951 81.5546 226.151C82.2546 224.951 82.2546 224.051 81.8546 222.751C79.8546 217.451 77.3546 212.351 74.3546 207.551C74.0546 207.151 73.7546 206.751 73.2546 206.251C65.4546 226.351 54.9546 244.551 40.5546 260.751ZM84.1546 152.551C74.6546 155.651 51.9546 173.451 48.7546 180.051C50.5546 181.051 52.3546 182.051 54.0546 183.251C55.7546 184.351 57.3546 185.451 58.9546 186.651C60.5546 187.951 62.1546 189.251 63.7546 190.651C65.2546 191.951 66.6546 193.451 68.0546 194.851C69.4546 196.351 70.7546 197.851 72.3546 199.551C77.8546 184.151 81.5546 168.651 84.1546 152.551ZM-43.5454 212.851C-36.8454 223.051 -28.8454 231.551 -19.2454 238.851C-18.9454 229.951 -18.9454 221.351 -18.3454 212.751C-17.7454 204.151 -16.4454 195.551 -15.3454 186.651C-26.5454 193.651 -35.7454 202.351 -43.5454 212.851ZM34.0546 284.751C31.6546 281.151 29.2546 277.751 26.7546 274.151C17.0546 282.251 6.45457 288.651 -5.64543 292.651C-3.54543 298.151 -1.44543 303.251 1.35457 308.151C9.95457 304.151 27.9546 291.251 34.0546 284.751ZM114.855 91.9508C114.955 81.6508 102.955 53.8508 96.5546 49.6508C95.8546 62.4508 95.0546 75.2508 94.3546 87.8508C101.255 89.2508 107.955 90.6508 114.855 91.9508ZM83.6546 229.151C76.9546 240.151 69.6546 250.551 61.5546 260.551C66.3546 260.851 82.9546 258.151 87.0546 256.451C87.9546 250.351 86.0546 234.451 83.6546 229.151ZM36.3546 282.551C40.0546 280.051 52.4546 266.851 53.2546 264.551C51.5546 264.551 49.8546 264.551 48.1546 264.551C46.4546 264.551 44.7546 264.351 43.1546 264.351C41.3546 264.251 39.3546 263.751 37.7546 264.351C36.2546 264.851 35.1546 266.551 33.8546 267.851C32.3546 269.251 30.9546 270.751 29.4546 272.251C31.3546 275.951 33.6546 279.351 36.3546 282.551ZM94.0546 41.2508C94.0546 37.8508 94.0546 34.9508 94.0546 31.7508C91.7546 32.8508 89.5546 33.8508 87.0546 35.0508C89.4546 37.1508 91.5546 39.0508 94.0546 41.2508ZM25.3546 262.151C26.2546 264.551 26.9546 266.551 27.8546 268.851C29.7546 266.951 31.7546 265.551 33.1546 263.451C30.5546 263.051 28.2546 262.651 25.3546 262.151Z" fill="#0B132B"/>
</g>
</g>
</g>
</g>
<defs>
<clipPath id="clip0_1923_24962">
<rect width="186" height="186" fill="white"/>
</clipPath>
<clipPath id="clip1_1923_24962">
<rect width="186" height="186" fill="white"/>
</clipPath>
<clipPath id="clip2_1923_24962">
<rect width="186" height="186" fill="white"/>
</clipPath>
</defs>
</svg>
