<svg width="21" height="20" viewBox="0 0 21 20" fill="none" xmlns="http://www.w3.org/2000/svg">
<g id="check-circle">
<path id="Icon" fill-rule="evenodd" clip-rule="evenodd" d="M2.7915 9.99935C2.7915 5.74215 6.24264 2.29102 10.4998 2.29102C14.757 2.29102 18.2082 5.74215 18.2082 9.99935C18.2082 14.2565 14.757 17.7077 10.4998 17.7077C6.24264 17.7077 2.7915 14.2565 2.7915 9.99935ZM10.4998 1.04102C5.55229 1.04102 1.5415 5.0518 1.5415 9.99935C1.5415 14.9469 5.55229 18.9577 10.4998 18.9577C15.4474 18.9577 19.4582 14.9469 19.4582 9.99935C19.4582 5.0518 15.4474 1.04102 10.4998 1.04102ZM14.6918 8.35796C14.9359 8.11388 14.9359 7.71815 14.6918 7.47407C14.4477 7.23 14.052 7.23 13.8079 7.47407L9.6665 11.6155L8.02511 9.97407C7.78103 9.73 7.38531 9.73 7.14123 9.97407C6.89715 10.2182 6.89715 10.6139 7.14123 10.858L9.22456 12.9413C9.46864 13.1854 9.86437 13.1854 10.1084 12.9413L14.6918 8.35796Z" fill="#ccc"/>
</g>
</svg>
