<svg width="21" height="20" viewBox="0 0 21 20" fill="none" xmlns="http://www.w3.org/2000/svg">
<g id="check-circle-2">
<path id="Icon" fill-rule="evenodd" clip-rule="evenodd" d="M10.4993 1.04102C5.5518 1.04102 1.54102 5.0518 1.54102 9.99935C1.54102 14.9469 5.5518 18.9577 10.4993 18.9577C15.4469 18.9577 19.4577 14.9469 19.4577 9.99935C19.4577 5.0518 15.4469 1.04102 10.4993 1.04102ZM14.2743 7.05708C14.5184 7.30116 14.5184 7.69689 14.2743 7.94097L10.1076 12.1076C9.99042 12.2248 9.83145 12.2907 9.66569 12.2907C9.49993 12.2907 9.34096 12.2248 9.22375 12.1076L7.55708 10.441C7.313 10.1969 7.313 9.80116 7.55708 9.55708C7.80116 9.313 8.19689 9.313 8.44097 9.55708L9.66569 10.7818L13.3904 7.05708C13.6345 6.813 14.0302 6.813 14.2743 7.05708Z" fill="#FEF3F2"/>
</g>
</svg>
