<svg xmlns="http://www.w3.org/2000/svg" width="20" height="20" viewBox="0 0 20 20" fill="none">
<path fill-rule="evenodd" clip-rule="evenodd" d="M2.29166 9.99984C2.29166 5.74264 5.74279 2.2915 9.99999 2.2915C14.2572 2.2915 17.7083 5.74264 17.7083 9.99984C17.7083 14.257 14.2572 17.7082 9.99999 17.7082C5.74279 17.7082 2.29166 14.257 2.29166 9.99984ZM9.99999 1.0415C5.05244 1.0415 1.04166 5.05229 1.04166 9.99984C1.04166 14.9474 5.05244 18.9582 9.99999 18.9582C14.9475 18.9582 18.9583 14.9474 18.9583 9.99984C18.9583 5.05229 14.9475 1.0415 9.99999 1.0415ZM14.1919 8.35845C14.436 8.11437 14.436 7.71864 14.1919 7.47456C13.9479 7.23048 13.5521 7.23048 13.308 7.47456L9.16666 11.616L7.52526 9.97456C7.28119 9.73048 6.88546 9.73048 6.64138 9.97456C6.3973 10.2186 6.3973 10.6144 6.64138 10.8584L8.72471 12.9418C8.96879 13.1859 9.36452 13.1859 9.6086 12.9418L14.1919 8.35845Z" fill="#D0D5DD"/>
</svg>