<svg width="48" height="48" viewBox="0 0 48 48" fill="none" xmlns="http://www.w3.org/2000/svg">
<g id="cross">
<path id="Icon" fill-rule="evenodd" clip-rule="evenodd" d="M10.9393 10.9393C11.5251 10.3536 12.4749 10.3536 13.0607 10.9393L24 21.8787L34.9393 10.9393C35.5251 10.3536 36.4749 10.3536 37.0607 10.9393C37.6464 11.5251 37.6464 12.4749 37.0607 13.0607L26.1213 24L37.0607 34.9393C37.6464 35.5251 37.6464 36.4749 37.0607 37.0607C36.4749 37.6464 35.5251 37.6464 34.9393 37.0607L24 26.1213L13.0607 37.0607C12.4749 37.6464 11.5251 37.6464 10.9393 37.0607C10.3536 36.4749 10.3536 35.5251 10.9393 34.9393L21.8787 24L10.9393 13.0607C10.3536 12.4749 10.3536 11.5251 10.9393 10.9393Z" fill="white"/>
</g>
</svg>
