<svg width="20" height="20" viewBox="0 0 20 20" fill="none" xmlns="http://www.w3.org/2000/svg">
<g id="edit-2" clip-path="url(#clip0_2834_5524)">
<path id="Icon" d="M14.166 2.49993C14.3849 2.28106 14.6447 2.10744 14.9307 1.98899C15.2167 1.87054 15.5232 1.80957 15.8327 1.80957C16.1422 1.80957 16.4487 1.87054 16.7347 1.98899C17.0206 2.10744 17.2805 2.28106 17.4993 2.49993C17.7182 2.7188 17.8918 2.97863 18.0103 3.2646C18.1287 3.55057 18.1897 3.85706 18.1897 4.16659C18.1897 4.47612 18.1287 4.78262 18.0103 5.06859C17.8918 5.35455 17.7182 5.61439 17.4993 5.83326L6.24935 17.0833L1.66602 18.3333L2.91602 13.7499L14.166 2.49993Z" stroke="#52596D" stroke-width="1.67" stroke-linecap="round" stroke-linejoin="round"/>
</g>
<defs>
<clipPath id="clip0_2834_5524">
<rect width="20" height="20" fill="white"/>
</clipPath>
</defs>
</svg>
