<svg width="38" height="32" viewBox="0 0 38 32" fill="none" xmlns="http://www.w3.org/2000/svg">
<g id="Frame 221">
<g id="Group 25">
<path id="Vector" d="M21.0629 4.52257C19.3229 6.264 12.1358 13.4015 11.6563 13.8741L9.89035 12.1156C8.67287 10.9012 7.09362 11.0557 6.13745 11.9236C15.7107 2.37152 -2.25275 20.2871 17.0918 0.993941C17.3451 0.685386 17.6635 0.436255 18.0243 0.264467C18.3851 0.0926796 18.7795 0.00240006 19.1793 5.32361e-06C19.705 -0.00104598 20.2193 0.153632 20.6569 0.444318C21.0945 0.735005 21.4357 1.14864 21.6374 1.63293C21.8391 2.11722 21.8922 2.65033 21.7899 3.16474C21.6877 3.67915 21.4347 4.15171 21.0629 4.52257Z" fill="#F7C148"/>
<path id="Vector_2" d="M37.9916 17.6527C37.2239 18.4163 40.7672 14.8783 30.498 25.1376L26.7513 28.8901C24.8304 30.8134 22.2424 31.9255 19.523 31.9963C16.8036 32.0671 14.161 31.0912 12.1423 29.2705L0.529663 17.6756L0.758837 17.4439C1.7702 16.5511 3.08455 16.0771 4.43387 16.1185C5.78319 16.16 7.06585 16.7137 8.02033 17.6669C13.5975 23.2299 14.4253 24.0508 15.5024 25.1577C15.9945 25.6493 16.5788 26.0393 17.222 26.3054C17.8651 26.5715 18.5545 26.7084 19.2506 26.7084C19.9468 26.7084 20.6361 26.5715 21.2792 26.3054C21.9223 26.0393 22.5067 25.6493 22.9988 25.1577L30.4923 17.6756C30.983 17.182 31.5663 16.7898 32.2089 16.5214C32.8514 16.2531 33.5407 16.114 34.2372 16.1118C34.9337 16.1097 35.6238 16.2448 36.268 16.5092C36.9122 16.7735 37.4979 17.1621 37.9916 17.6527Z" fill="white"/>
<path id="Vector_3" d="M24.8504 15.9225L23.0199 17.7465L21.0639 19.692C20.0631 20.686 18.1984 20.5246 17.3857 19.5504L15.5609 17.7379L21.158 12.1786C21.6367 11.7047 22.2799 11.4309 22.9556 11.4135C23.6312 11.3961 24.2878 11.6365 24.7906 12.0851C26.0052 13.3171 25.8626 14.9624 24.8504 15.9225Z" fill="#3366CC"/>
</g>
</g>
</svg>
