<svg width="140" height="22" viewBox="0 0 140 22" fill="none" xmlns="http://www.w3.org/2000/svg">
<g id="Group 31">
<path id="Vector" d="M4.26874 20.5365C3.12573 19.8551 2.19097 18.8751 1.56538 17.7023C0.91568 16.4829 0.584209 15.1197 0.601511 13.7388C0.574203 12.3417 0.91165 10.9617 1.58076 9.73426C2.21134 8.5925 3.13415 7.63808 4.25503 6.96835C5.39988 6.28351 6.71252 5.9287 8.04724 5.9433C9.61092 5.9433 10.935 6.27813 12.0193 6.94783C13.0763 7.5881 13.9355 8.50745 14.5018 9.60437C15.1874 10.9892 15.4692 12.5384 15.315 14.0754C15.2933 14.3148 15.2421 14.5506 15.1626 14.7775H4.35092C4.46505 15.8777 4.88788 16.7586 5.6195 17.4204C6.06402 17.8245 6.59332 18.1246 7.1688 18.2987C7.74428 18.4729 8.35147 18.5167 8.94607 18.427C9.54067 18.3374 10.1077 18.1163 10.6059 17.7802C11.1041 17.4441 11.5208 17.0013 11.8257 16.4841L14.75 17.9159C14.2934 18.9796 13.4887 19.8555 12.3359 20.5434C11.1831 21.2313 9.84545 21.573 8.32286 21.5684C6.77857 21.5753 5.42724 21.2313 4.26874 20.5365ZM5.71714 9.73426C5.06427 10.2764 4.63679 11.0424 4.43476 12.0321H11.4954C11.4496 11.1745 11.0684 10.369 10.4338 9.7889C9.77972 9.20435 8.92486 8.89413 8.04724 8.92276C7.19837 8.90345 6.37105 9.19037 5.71714 9.73084V9.73426Z" fill="white"/>
<path id="Vector_2" d="M21.5472 20.8623C20.4621 20.4044 19.4852 19.7246 18.6795 18.8668C17.8797 18.0143 17.2812 16.9939 16.9281 15.8805L20.0458 14.5326C20.4873 15.6382 21.2327 16.5969 22.1961 17.2985C23.1186 17.9634 24.2306 18.3156 25.3685 18.3031C26.3421 18.3031 27.128 18.0753 27.7261 17.6197C28.0116 17.412 28.2422 17.1382 28.3982 16.8218C28.5542 16.5055 28.6308 16.1561 28.6215 15.8036C28.6434 15.2572 28.4506 14.7238 28.0839 14.3174C27.7256 13.9335 27.1879 13.622 26.4711 13.3828L22.5334 12.1169C20.9354 11.6033 19.7313 10.8555 18.921 9.87373C18.1125 8.89513 17.6818 7.66003 17.7071 6.39201C17.6856 5.29296 17.9881 4.21178 18.5768 3.28267C19.1724 2.36816 20.0128 1.6385 21.0028 1.17627C22.1197 0.655028 23.3414 0.396096 24.5742 0.419415C26.4324 0.419415 28.0462 0.887556 29.4159 1.82377C30.7536 2.71902 31.7646 4.02274 32.2973 5.53956L29.2156 6.91479C28.8628 5.95588 28.2278 5.12576 27.3939 4.53328C26.5665 3.96856 25.5832 3.67532 24.581 3.69442C23.6256 3.69442 22.8581 3.92845 22.2783 4.39656C22.0001 4.61239 21.7766 4.89049 21.6258 5.2083C21.4751 5.52612 21.4012 5.87483 21.4102 6.22634C21.4049 6.77907 21.6064 7.31387 21.9753 7.72629C22.3519 8.15909 22.9083 8.49392 23.6445 8.73082L27.423 9.91477C30.6942 10.9603 32.3304 12.8498 32.3315 15.5832C32.3525 16.6886 32.0348 17.7741 31.4207 18.6943C30.7907 19.6126 29.9243 20.3444 28.9126 20.8127C27.7459 21.348 26.4726 21.6115 25.1888 21.5832C23.9382 21.5952 22.6985 21.3498 21.5472 20.8623Z" fill="white"/>
<path id="Vector_3" d="M38.1512 20.5606C36.9443 19.8813 35.9398 18.8943 35.2403 17.7007C34.5409 16.5071 34.1717 15.1495 34.1703 13.7668C34.1689 12.3841 34.5355 11.0259 35.2325 9.83083C35.9295 8.63579 36.932 7.64683 38.1375 6.96507C39.3691 6.29684 40.7487 5.94678 42.1505 5.94678C43.5524 5.94678 44.932 6.29684 46.1636 6.96507C47.341 7.62815 48.3247 8.58621 49.0176 9.74465C49.5547 10.641 49.9065 11.6357 50.0522 12.6699C50.1979 13.7041 50.1344 14.757 49.8657 15.7664C49.597 16.7758 49.1283 17.7212 48.4875 18.547C47.8467 19.3727 47.0466 20.0621 46.1345 20.5743C44.908 21.2359 43.5353 21.5812 42.1411 21.5788C40.7469 21.5764 39.3754 21.2265 38.1512 20.5606ZM44.3009 17.699C44.9248 17.3062 45.4301 16.7517 45.763 16.0948C46.1289 15.3749 46.3135 14.5768 46.3006 13.7697C46.3145 12.9668 46.1298 12.1729 45.763 11.4582C45.4258 10.8029 44.9215 10.2478 44.3009 9.84884C43.6619 9.44744 42.9192 9.24141 42.1642 9.25607C41.4005 9.24379 40.6491 9.44941 39.9985 9.84884C39.3662 10.2421 38.8517 10.798 38.509 11.4582C38.1422 12.1729 37.9576 12.9668 37.9714 13.7697C37.9586 14.5768 38.1431 15.3749 38.509 16.0948C38.8463 16.7591 39.362 17.3169 39.9985 17.7059C40.6524 18.0959 41.4025 18.2958 42.1642 18.2833C42.9178 18.296 43.6592 18.0933 44.3009 17.699Z" fill="white"/>
<path id="Vector_4" d="M52.2579 6.27663H55.6495V8.39679C56.0353 7.53461 56.5774 6.93842 57.276 6.60813C58.0379 6.264 58.8675 6.09463 59.7037 6.11263H60.5854V9.30397H59.2876C58.2775 9.30397 57.4551 9.6206 56.8205 10.2539C56.1859 10.8871 55.8686 11.7726 55.8686 12.9104V21.2492H52.2562L52.2579 6.27663Z" fill="white"/>
<path id="Vector_5" d="M62.8197 20.4221C61.8815 19.651 61.4129 18.6055 61.4141 17.2854C61.398 16.7077 61.5025 16.133 61.7209 15.5977C61.9393 15.0624 62.2668 14.5783 62.6828 14.1761C63.5274 13.3492 64.8326 12.7894 66.5983 12.4967L71.0667 11.7809V11.0967C71.0667 10.2131 70.3503 9.49674 69.4667 9.49674H62.9858V6.27637H71.4792C73.2465 6.27637 74.6792 7.70906 74.6792 9.47637V21.2489H71.255V19.6515C70.0771 20.9362 68.514 21.5787 66.5657 21.5787C65.0054 21.5787 63.7568 21.1931 62.8197 20.4221ZM65.7439 18.372C66.1734 18.6896 66.6994 18.8501 67.2334 18.8264C68.3748 18.8264 69.2987 18.4688 70.0053 17.7535C70.35 17.412 70.6218 17.0043 70.8042 16.555C70.9866 16.1058 71.0759 15.6243 71.0667 15.1397V14.5331L67.2882 15.1669C65.8729 15.4426 65.1646 16.1032 65.1635 17.1487C65.1552 17.3841 65.2035 17.618 65.3045 17.8308C65.4055 18.0437 65.5562 18.2292 65.7439 18.372Z" fill="white"/>
<path id="Vector_6" d="M82.7328 0.746094H84.5254V19.5967H93.7705V21.2487H82.7396L82.7328 0.746094Z" fill="#76809E"/>
<path id="Vector_7" d="M98.3018 21.0486C97.6062 20.7258 97.0105 20.2218 96.5777 19.5897C96.152 18.9557 95.931 18.2069 95.9443 17.4439C95.9412 16.3882 96.3289 15.3685 97.0331 14.5806C97.7591 13.7378 98.9678 13.1683 100.659 12.8722L106.148 11.9633V9.79286C106.148 8.90921 105.432 8.19286 104.548 8.19286H97.2677V6.62451H104.604C106.371 6.62451 107.804 8.0572 107.804 9.82451V21.2383H106.121V18.7611C105.599 19.5907 104.873 20.2731 104.012 20.7428C103.016 21.3052 101.887 21.5902 100.743 21.568C99.9004 21.5819 99.0656 21.4043 98.3018 21.0486ZM98.5911 19.3146C99.233 19.8218 100.034 20.0852 100.853 20.0578C101.83 20.0817 102.794 19.8337 103.638 19.3419C104.417 18.8782 105.055 18.213 105.486 17.4166C105.928 16.6062 106.156 15.6965 106.148 14.7737V13.5077L101.101 14.3329C99.8512 14.5367 98.9689 14.9131 98.4541 15.4621C97.9529 15.9782 97.6755 16.6706 97.682 17.3892C97.6719 17.7598 97.7489 18.1275 97.9067 18.463C98.0646 18.7985 98.299 19.0925 98.5911 19.3215V19.3146Z" fill="#76809E"/>
<path id="Vector_8" d="M115.785 20.7395C114.815 20.2098 114.009 19.4244 113.455 18.469V21.2486H111.8V0.414551H113.455V9.3324C114.036 8.40165 114.848 7.63658 115.813 7.11147C116.832 6.56137 117.977 6.28194 119.136 6.29997C120.438 6.2789 121.72 6.62723 122.832 7.3045C123.915 7.96934 124.801 8.90917 125.4 10.0278C126.017 11.2361 126.338 12.5729 126.338 13.9289C126.338 15.2849 126.017 16.6217 125.4 17.8301C124.804 18.9533 123.917 19.897 122.832 20.5635C121.72 21.2408 120.438 21.5891 119.136 21.5681C117.966 21.5862 116.811 21.3007 115.785 20.7395ZM121.908 19.1421C122.734 18.6108 123.406 17.8705 123.853 16.9963C124.341 16.0456 124.588 14.9895 124.57 13.9212C124.588 12.8594 124.341 11.8099 123.853 10.8666C123.4 9.99486 122.725 9.25856 121.894 8.73279C121.052 8.20574 120.075 7.93332 119.081 7.94857C118.079 7.93595 117.094 8.20796 116.241 8.73279C115.394 9.25657 114.7 9.99217 114.227 10.8666C113.721 11.8043 113.465 12.8561 113.483 13.9212C113.465 14.9927 113.721 16.0511 114.227 16.9963C114.697 17.8762 115.392 18.6165 116.241 19.1421C117.094 19.6675 118.079 19.9401 119.081 19.928C120.08 19.9459 121.062 19.6727 121.908 19.1421Z" fill="#76809E"/>
<path id="Vector_9" d="M131.122 20.5603C130.092 19.8928 129.296 18.921 128.846 17.7807L130.28 17.1195C130.703 17.9768 131.34 18.7115 132.129 19.2534C132.884 19.7715 133.78 20.0452 134.697 20.0375C135.555 20.0663 136.401 19.8203 137.109 19.3354C137.415 19.1329 137.666 18.8566 137.837 18.5321C138.008 18.2075 138.095 17.845 138.088 17.4783C138.104 17.1582 138.039 16.8394 137.899 16.5509C137.759 16.2623 137.55 16.0132 137.289 15.8263C136.755 15.4406 136.158 15.1515 135.524 14.9721L133.262 14.3383C131.994 13.9727 131.061 13.4544 130.463 12.7836C129.872 12.1326 129.551 11.2819 129.566 10.4038C129.549 9.63526 129.771 8.88044 130.201 8.24264C130.632 7.62121 131.224 7.12725 131.913 6.81268C132.655 6.46632 133.465 6.29114 134.284 6.30016C135.454 6.28759 136.603 6.61209 137.594 7.23469C138.556 7.82174 139.293 8.71293 139.689 9.76653L138.201 10.4499C137.849 9.66525 137.285 8.99349 136.573 8.50916C135.89 8.04635 135.082 7.80202 134.257 7.8087C133.373 7.8087 132.658 8.04106 132.105 8.50916C131.841 8.72293 131.629 8.99383 131.486 9.30139C131.343 9.60895 131.271 9.94511 131.278 10.2842C131.278 10.9676 131.517 11.4864 131.995 11.8406C132.475 12.1984 133.017 12.4643 133.594 12.6247L136.049 13.3388C137.244 13.6703 138.168 14.1936 138.821 14.9089C139.463 15.5951 139.813 16.5023 139.8 17.4407C139.809 18.199 139.577 18.9406 139.138 19.5591C138.673 20.2028 138.045 20.7112 137.318 21.0318C136.495 21.3997 135.6 21.5829 134.698 21.5682C133.432 21.5952 132.187 21.2442 131.122 20.5603Z" fill="#76809E"/>
</g>
</svg>
