<svg width="20" height="20" viewBox="0 0 20 20" fill="none" xmlns="http://www.w3.org/2000/svg">
<g id="user-plus" clip-path="url(#clip0_2440_1693)">
<path id="Icon" d="M13.3333 17.5V15.8333C13.3333 14.9493 12.9822 14.1014 12.357 13.4763C11.7319 12.8512 10.8841 12.5 10 12.5H4.16668C3.28262 12.5 2.43478 12.8512 1.80965 13.4763C1.18453 14.1014 0.833344 14.9493 0.833344 15.8333V17.5M16.6667 6.66667V11.6667M19.1667 9.16667H14.1667M10.4167 5.83333C10.4167 7.67428 8.92429 9.16667 7.08334 9.16667C5.24239 9.16667 3.75001 7.67428 3.75001 5.83333C3.75001 3.99238 5.24239 2.5 7.08334 2.5C8.92429 2.5 10.4167 3.99238 10.4167 5.83333Z" stroke="#0B132B" stroke-width="1.67" stroke-linecap="round" stroke-linejoin="round"/>
</g>
<defs>
<clipPath id="clip0_2440_1693">
<rect width="20" height="20" fill="white"/>
</clipPath>
</defs>
</svg>
