<svg width="16" height="16" viewBox="0 0 16 16" fill="none" xmlns="http://www.w3.org/2000/svg">
<g id="alert-triangle">
<path id="Icon" d="M7.99985 5.33314V7.99981M7.99985 10.6665H8.00651M6.85985 1.90648L1.21318 11.3331C1.09676 11.5348 1.03516 11.7633 1.03451 11.9962C1.03385 12.229 1.09417 12.4579 1.20946 12.6602C1.32475 12.8624 1.491 13.031 1.69165 13.149C1.89231 13.2671 2.12038 13.3306 2.35318 13.3331H13.6465C13.8793 13.3306 14.1074 13.2671 14.308 13.149C14.5087 13.031 14.6749 12.8624 14.7902 12.6602C14.9055 12.4579 14.9658 12.229 14.9652 11.9962C14.9645 11.7633 14.9029 11.5348 14.7865 11.3331L9.13985 1.90648C9.021 1.71055 8.85366 1.54856 8.65398 1.43613C8.45429 1.32371 8.229 1.26465 7.99985 1.26465C7.77069 1.26465 7.5454 1.32371 7.34572 1.43613C7.14603 1.54856 6.97869 1.71055 6.85985 1.90648Z" stroke="#F79009" stroke-width="1.5" stroke-linecap="round" stroke-linejoin="round"/>
</g>
</svg>
