<svg xmlns="http://www.w3.org/2000/svg" width="17" height="16" viewBox="0 0 17 16" fill="none">
  <g clip-path="url(#clip0_2496_2501)">
    <path d="M15.3333 11.28V13.28C15.3341 13.4657 15.296 13.6495 15.2217 13.8196C15.1473 13.9897 15.0382 14.1424 14.9014 14.2679C14.7646 14.3934 14.603 14.489 14.4272 14.5485C14.2513 14.608 14.0649 14.6301 13.88 14.6133C11.8285 14.3904 9.85799 13.6894 8.12666 12.5667C6.51587 11.5431 5.15021 10.1775 4.12666 8.56668C2.99997 6.82748 2.29882 4.84734 2.07999 2.78668C2.06333 2.60233 2.08524 2.41652 2.14432 2.2411C2.20341 2.06567 2.29837 1.90447 2.42317 1.76776C2.54796 1.63105 2.69986 1.52182 2.86918 1.44703C3.03851 1.37224 3.22155 1.33352 3.40666 1.33335H5.40666C5.73019 1.33016 6.04385 1.44473 6.28916 1.6557C6.53448 1.86667 6.69471 2.15964 6.73999 2.48001C6.8244 3.12006 6.98096 3.7485 7.20666 4.35335C7.29635 4.59196 7.31576 4.85129 7.26259 5.1006C7.20942 5.34991 7.0859 5.57875 6.90666 5.76001L6.05999 6.60668C7.00903 8.27571 8.39096 9.65764 10.06 10.6067L10.9067 9.76001C11.0879 9.58077 11.3168 9.45725 11.5661 9.40408C11.8154 9.35091 12.0747 9.37032 12.3133 9.46001C12.9182 9.68571 13.5466 9.84227 14.1867 9.92668C14.5105 9.97237 14.8063 10.1355 15.0177 10.385C15.2291 10.6345 15.3414 10.9531 15.3333 11.28Z" stroke="#52596D" stroke-width="1.5" stroke-linecap="round" stroke-linejoin="round"/>
  </g>
  <defs>
    <clipPath id="clip0_2496_2501">
      <rect width="16" height="16" fill="white" transform="translate(0.666656)"/>
    </clipPath>
  </defs>
</svg>