<svg xmlns="http://www.w3.org/2000/svg" width="20" height="20" viewBox="0 0 20 20" fill="none">
  <path d="M8.58581 11.9191L7.5809 10.9142C6.50996 9.84327 5.97449 9.3078 5.93831 8.84807C5.90691 8.44918 6.06838 8.05936 6.37265 7.79949C6.72331 7.5 7.48058 7.5 8.99512 7.5H11.0049C12.5195 7.5 13.2767 7.5 13.6274 7.79949C13.9317 8.05936 14.0931 8.44918 14.0617 8.84807C14.0256 9.3078 13.4901 9.84327 12.4191 10.9142L11.4142 11.9191C10.9192 12.4141 10.6717 12.6617 10.3863 12.7544C10.1352 12.836 9.8648 12.836 9.61375 12.7544C9.32834 12.6617 9.08083 12.4141 8.58581 11.9191Z" fill="#52596D"/>
</svg>