<svg width="20" height="20" viewBox="0 0 20 20" fill="none" xmlns="http://www.w3.org/2000/svg">
<g id="trash-2">
<path id="Icon" d="M2.5 5.0013H4.16667M4.16667 5.0013H17.5M4.16667 5.0013V16.668C4.16667 17.11 4.34226 17.5339 4.65482 17.8465C4.96738 18.159 5.39131 18.3346 5.83333 18.3346H14.1667C14.6087 18.3346 15.0326 18.159 15.3452 17.8465C15.6577 17.5339 15.8333 17.11 15.8333 16.668V5.0013H4.16667ZM6.66667 5.0013V3.33464C6.66667 2.89261 6.84226 2.46868 7.15482 2.15612C7.46738 1.84356 7.89131 1.66797 8.33333 1.66797H11.6667C12.1087 1.66797 12.5326 1.84356 12.8452 2.15612C13.1577 2.46868 13.3333 2.89261 13.3333 3.33464V5.0013M8.33333 9.16797V14.168M11.6667 9.16797V14.168" stroke="#434A60" stroke-width="1.67" stroke-linecap="round" stroke-linejoin="round"/>
</g>
</svg>
