<svg width="20" height="20" viewBox="0 0 20 20" fill="none" xmlns="http://www.w3.org/2000/svg">
<g id="upload-cloud" clip-path="url(#clip0_2906_893)">
<path id="Icon" d="M13.3326 13.3332L9.99923 9.9999M9.99923 9.9999L6.6659 13.3332M9.99923 9.9999V17.4999M16.9909 15.3249C17.8037 14.8818 18.4458 14.1806 18.8158 13.3321C19.1858 12.4835 19.2627 11.5359 19.0344 10.6388C18.8061 9.7417 18.2855 8.94616 17.5548 8.37778C16.8241 7.80939 15.925 7.50052 14.9992 7.4999H13.9492C13.697 6.52427 13.2269 5.61852 12.5742 4.85073C11.9215 4.08295 11.1033 3.47311 10.181 3.06708C9.2587 2.66104 8.25636 2.46937 7.24933 2.50647C6.2423 2.54358 5.25679 2.80849 4.36688 3.28129C3.47697 3.7541 2.70583 4.42249 2.11142 5.23622C1.51701 6.04996 1.11481 6.98785 0.935051 7.9794C0.755293 8.97095 0.802655 9.99035 1.07358 10.961C1.3445 11.9316 1.83194 12.8281 2.49923 13.5832" stroke="#475467" stroke-width="1.66667" stroke-linecap="round" stroke-linejoin="round"/>
</g>
<defs>
<clipPath id="clip0_2906_893">
<rect width="20" height="20" fill="white"/>
</clipPath>
</defs>
</svg>
