<svg width="20" height="20" viewBox="0 0 20 20" fill="none" xmlns="http://www.w3.org/2000/svg">
<g id="upload-cloud" clip-path="url(#clip0_2440_2430)">
<path id="Icon" d="M13.3333 13.3332L10 9.9999M10 9.9999L6.66667 13.3332M10 9.9999V17.4999M16.9917 15.3249C17.8044 14.8818 18.4465 14.1806 18.8166 13.3321C19.1866 12.4835 19.2635 11.5359 19.0352 10.6388C18.8068 9.7417 18.2862 8.94616 17.5556 8.37778C16.8249 7.80939 15.9257 7.50052 15 7.4999H13.95C13.6978 6.52427 13.2276 5.61852 12.575 4.85073C11.9223 4.08295 11.104 3.47311 10.1818 3.06708C9.25946 2.66104 8.25713 2.46937 7.2501 2.50647C6.24307 2.54358 5.25756 2.80849 4.36765 3.28129C3.47774 3.7541 2.70659 4.42249 2.11219 5.23622C1.51778 6.04996 1.11558 6.98785 0.935818 7.9794C0.756059 8.97095 0.803422 9.99035 1.07435 10.961C1.34527 11.9316 1.8327 12.8281 2.5 13.5832" stroke="#52596D" stroke-width="1.67" stroke-linecap="round" stroke-linejoin="round"/>
</g>
<defs>
<clipPath id="clip0_2440_2430">
<rect width="20" height="20" fill="white"/>
</clipPath>
</defs>
</svg>
