<svg width="20" height="20" viewBox="0 0 20 20" fill="none" xmlns="http://www.w3.org/2000/svg">
<g id="user-check" clip-path="url(#clip0_2937_567)">
<path id="Icon" d="M13.3333 17.5V15.8333C13.3333 14.9493 12.9821 14.1014 12.357 13.4763C11.7319 12.8512 10.884 12.5 9.99998 12.5H4.16665C3.28259 12.5 2.43474 12.8512 1.80962 13.4763C1.1845 14.1014 0.833313 14.9493 0.833313 15.8333V17.5M14.1666 9.16667L15.8333 10.8333L19.1666 7.5M10.4166 5.83333C10.4166 7.67428 8.92426 9.16667 7.08331 9.16667C5.24236 9.16667 3.74998 7.67428 3.74998 5.83333C3.74998 3.99238 5.24236 2.5 7.08331 2.5C8.92426 2.5 10.4166 3.99238 10.4166 5.83333Z" stroke="#0B132B" stroke-width="1.67" stroke-linecap="round" stroke-linejoin="round"/>
</g>
<defs>
<clipPath id="clip0_2937_567">
<rect width="20" height="20" fill="white"/>
</clipPath>
</defs>
</svg>
